<?xml version="1.0" ?><!DOCTYPE svg  PUBLIC '-//W3C//DTD SVG 1.1//EN'  'http://www.w3.org/Graphics/SVG/1.1/DTD/svg11.dtd'><svg enable-background="new 0 0 512 512" height="512px" id="Layer_1" version="1.1" viewBox="0 0 512 512" width="512px" xml:space="preserve" xmlns="http://www.w3.org/2000/svg" xmlns:xlink="http://www.w3.org/1999/xlink"><path d="M141.868,158.855c31.876-31.909,47.699-74.072,47.727-118.258c0-10.313-0.912-20.732-2.68-31.043  C94.95,35.29,23.864,111.025,5.009,205.67c6.219,0.652,12.385,0.957,18.554,0.957C67.726,206.576,109.914,190.754,141.868,158.855   M353.121,370.185c-31.9,31.902-47.699,74.066-47.699,118.208c-0.052,6.213,0.25,12.38,0.883,18.653  c94.668-18.907,170.456-89.99,196.189-181.959c-10.391-1.771-20.804-2.677-31.143-2.677  C427.215,322.459,385.05,338.234,353.121,370.185 M256.025,0c-10.664,0-21.032,0.754-31.297,1.997  c2.227,12.864,3.414,25.756,3.414,38.601c0.027,53.388-19.44,105.965-59.025,145.551c-39.536,39.54-92.088,59.006-145.378,59.006  h-0.177c-7.733,0-15.471-0.459-23.229-1.215c-0.18,3.991-0.307,7.993-0.307,12.082c0,141.413,114.589,255.979,256,255.979  c4.021,0,8.041-0.151,12.031-0.312c-0.805-7.729-1.212-15.521-1.212-23.296c-0.05-53.344,19.416-105.921,58.999-145.518  c39.592-39.578,92.196-59.094,145.51-58.997c12.893,0,25.834,1.175,38.674,3.392c1.211-10.216,1.949-20.682,1.949-31.247  C511.976,114.606,397.387,0,256.025,0"/></svg>