<?xml version="1.0" ?><svg enable-background="new 0 0 40 40" id="Слой_1" version="1.1" viewBox="0 0 40 40" xml:space="preserve" xmlns="http://www.w3.org/2000/svg" xmlns:xlink="http://www.w3.org/1999/xlink"><g><path d="M19.9,40c-11,0-20-9-20-20s9-20,20-20s20,9,20,20S30.9,40,19.9,40z M19.9,2c-9.9,0-18,8.1-18,18s8.1,18,18,18s18-8.1,18-18   S29.8,2,19.9,2z"/></g><g><path d="M24.9,30.7c0,0.6-0.5,1-1,1h-8c-0.5,0-1-0.4-1-1c0-0.5,0.5-1,1-1h3v-10c0-0.5,0.5-1,1-1s1,0.5,1,1v10h3   C24.4,29.7,24.9,30.1,24.9,30.7z"/></g><g><path d="M23.9,16.5h-8c-0.6,0-1-0.4-1-1s0.4-1,1-1h8c0.6,0,1,0.4,1,1S24.4,16.5,23.9,16.5z"/></g><g><path d="M19.9,12.2c-1.7,0-3-1.3-3-3s1.3-3,3-3s3,1.3,3,3S21.5,12.2,19.9,12.2z M19.9,8.2c-0.6,0-1,0.4-1,1s0.4,1,1,1s1-0.4,1-1   S20.4,8.2,19.9,8.2z"/></g></svg>